<svg version="1.2" baseProfile="tiny-ps" xmlns="http://www.w3.org/2000/svg" viewBox="0 0 150 78" width="150" height="78">
	<title>BMW-Group-logo-svg</title>
	<style>
		tspan { white-space:pre }
		.shp0 { fill: #6f6f6f } 
	</style>
	<g id="Layer">
		<g id="Layer">
			<g id="BMW_Group_Next">
				<g id="Layer">
					<path id="Layer" fill-rule="evenodd" class="shp0" d="M1.14 35.6L1.14 0L16.62 0C20.28 0 22.65 0.38 24.55 1.65C26.69 3.12 27.97 5.62 27.97 8.5C27.97 10.72 27.36 12.28 26.36 14.07C25.69 15.21 24.98 16.34 24.46 17.19C25.5 17.94 26.41 18.75 27.26 19.88C28.12 21.11 28.73 23 28.73 25.22C28.73 28.57 27.69 31.31 25.5 33.05C23.41 34.8 20.56 35.6 15.86 35.6L1.14 35.6ZM6.89 30.22L15.96 30.22C18.86 30.22 20.37 29.84 21.42 28.95C22.46 28.1 22.89 26.87 22.89 25.22C22.89 23.37 22.32 22.05 20.9 21.06C19.81 20.4 18.48 20.21 16.29 20.21L6.89 20.21L6.89 30.22ZM6.89 14.83L19.66 14.83C20.09 14.17 20.56 13.36 20.99 12.66C21.66 11.47 22.13 10.44 22.13 9.07C22.13 7.65 21.7 6.66 20.61 6.04C19.66 5.48 18.19 5.38 16.1 5.38L6.89 5.38L6.89 14.83Z" />
					<path id="Layer" class="shp0" d="M38.47 35.6L38.47 8.55L46.88 28.52L52.15 28.52L60.55 8.55L60.55 35.6L66.21 35.6L66.21 0L58.61 0L49.58 21.49L40.51 0L32.82 0L32.82 35.6L38.47 35.6L38.47 35.6Z" />
					<path id="Layer" class="shp0" d="M83.45 35.6L89.38 13.36L95.32 35.6L102.87 35.6L109.9 0L104.11 0L98.6 28.19L92.47 5.38L86.34 5.38L80.22 28.19L74.71 0L68.82 0L75.85 35.6L83.45 35.6L83.45 35.6Z" />
					<path id="Layer" class="shp0" d="M26.64 76.63L26.64 57.93L20.94 57.93L20.94 71.95C19.66 72.09 17.19 72.38 14.87 72.38C10.83 72.38 8.5 71.39 7.22 68.84C6.17 66.76 5.84 63.69 5.84 59.53C5.84 55.38 6.22 52.17 7.27 50.04C8.6 47.26 10.64 46.17 14.77 46.17C16.05 46.17 17.48 46.36 18.95 46.64C21.18 47.07 23.51 47.59 25.46 48.06L25.46 42.49C23.98 42.11 21.94 41.64 19.76 41.21C18 40.88 16.05 40.6 14.2 40.6C7.6 40.6 4.56 43.05 2.56 46.41C0.67 49.57 0 53.82 0 59.63C0 65.2 0.71 69.26 2.33 72.05C4.27 75.4 7.12 77.81 14.01 77.81C18.14 77.81 23.22 77.19 26.64 76.63L26.64 76.63Z" />
					<path id="Layer" fill-rule="evenodd" class="shp0" d="M36.6 77L30.85 77L30.85 41.4L45.19 41.4C49.56 41.4 52.22 41.87 54.5 43.81C56.54 45.51 57.68 48.39 57.68 51.51C57.68 54.72 56.54 56.94 54.69 59.2C53.55 60.57 52.08 62.22 51.18 63.17L59.39 77L52.7 77L45 64.02L36.6 64.02L36.6 77ZM36.6 58.54L47.9 58.54C48.56 57.83 49.37 56.89 49.99 56.13C51.03 54.81 51.84 53.44 51.84 51.55C51.84 49.9 51.41 48.67 50.18 47.82C49.13 47.11 47.61 46.88 44.57 46.88L36.6 46.88L36.6 58.54Z" />
					<path id="Layer" fill-rule="evenodd" class="shp0" d="M74.97 40.6C81.1 40.6 84.33 42.3 86.8 45.84C89.12 49.14 89.88 54.2 89.88 59.3C89.88 64.68 88.93 69.5 86.8 72.52C84.28 76.15 81.05 77.81 74.97 77.81C67.99 77.81 64.9 75.92 62.72 72.42C60.87 69.45 60.01 64.82 60.01 59.3C60.01 54.53 60.58 49.76 62.43 46.64C64.66 42.86 67.94 40.6 74.97 40.6ZM74.97 46.07C71.74 46.07 68.99 46.69 67.42 49.52C66.18 51.74 65.85 55.47 65.85 59.3C65.85 63.07 66.23 66.9 67.47 69.12C69.03 71.81 71.74 72.33 74.97 72.33C77.82 72.33 80.1 71.76 81.76 69.64C83.61 67.28 84.04 63.26 84.04 59.3C84.04 55.47 83.61 51.84 82.24 49.52C80.72 46.88 78.2 46.07 74.97 46.07Z" />
					<path id="Layer" class="shp0" d="M93.55 41.4L93.55 63.31C93.55 68.36 94.12 72 96.55 74.55C98.92 77.15 102.06 77.81 106.9 77.81C111.46 77.81 114.64 77.05 117.06 74.64C119.63 72.09 120.2 68.65 120.2 63.31L120.2 41.4L114.45 41.4L114.45 63.45C114.45 67.18 114.21 69.4 112.65 70.87C111.32 72.05 109.27 72.33 106.9 72.33C104.48 72.33 102.39 72.05 101.11 70.82C99.54 69.31 99.3 67.09 99.3 63.45L99.3 41.4L93.55 41.4L93.55 41.4Z" />
					<path id="Layer" fill-rule="evenodd" class="shp0" d="M130.13 77L124.38 77L124.38 41.4L138.68 41.4C142.62 41.4 145.19 42.25 147.18 44.28C149.08 46.26 149.98 49.29 149.98 52.54C149.98 55.94 149.17 59.01 147.09 61.19C145.09 63.22 142.38 63.92 139.06 64.11C137.06 64.25 133.88 64.25 130.13 64.25L130.13 77ZM130.13 58.78C133.31 58.78 136.3 58.78 138.49 58.64C140.63 58.49 142 58.12 142.95 56.98C143.9 55.94 144.14 54.43 144.14 52.54C144.14 50.61 143.71 49.1 142.72 48.11C141.72 47.11 140.34 46.88 138.06 46.88L130.13 46.88L130.13 58.78Z" />
				</g>
				<g id="Layer">
				</g>
				<g id="Layer">
				</g>
				<g id="Layer">
				</g>
				<g id="Layer">
				</g>
				<g id="Layer">
				</g>
				<g id="Layer">
				</g>
			</g>
		</g>
	</g>
</svg>